<svg xmlns="http://www.w3.org/2000/svg" xmlns:xlink="http://www.w3.org/1999/xlink" width="120px" height="120px" viewBox="0 0 120 120" version="1.1">
  <path style=" stroke:none;fill-rule:nonzero;fill:rgb(83.529412%,83.529412%,83.529412%);fill-opacity:1;" d="M 60 0.945312 C 27.316406 0.945312 0.820312 27.382812 0.820312 60 C 0.820312 92.617188 27.316406 119.054688 60 119.054688 C 92.683594 119.054688 119.179688 92.617188 119.179688 60 C 119.179688 27.382812 92.683594 0.945312 60 0.945312 Z M 60.59375 114.503906 C 40.488281 114.503906 26.207031 102.214844 26.003906 102.011719 C 29.257812 100.117188 42.617188 97.523438 45.742188 95.5625 C 49.203125 93.386719 48.09375 81.492188 48.09375 81.492188 L 45.742188 79.441406 C 45.742188 79.441406 45.269531 73.996094 44.128906 72.113281 C 42.171875 68.898438 39.429688 60.390625 39.429688 60.390625 C 39.429688 60.390625 37.078125 58.683594 37.078125 55.699219 C 37.078125 52.71875 39.429688 51.011719 39.429688 51.011719 C 39.429688 51.011719 37.59375 42.710938 37.59375 36.945312 C 37.59375 23.832031 47.585938 18.1875 61.285156 18.1875 C 74.980469 18.1875 82.601562 24.828125 82.601562 36.945312 C 82.601562 42.710938 81.722656 51.011719 81.722656 51.011719 C 81.722656 51.011719 84.070312 52.71875 84.070312 55.699219 C 84.070312 58.683594 81.722656 60.390625 81.722656 60.390625 C 81.722656 60.390625 79.304688 67.742188 77.023438 72.113281 C 76.003906 74.066406 75.40625 79.441406 75.40625 79.441406 L 73.058594 81.492188 C 73.058594 81.492188 71.945312 93.386719 75.40625 95.5625 C 78.492188 97.5 91.546875 100.050781 95.011719 101.9375 C 95.011719 102.167969 80.699219 114.503906 60.59375 114.503906 Z M 60.59375 114.503906 "/>
</svg>
