<svg xmlns="http://www.w3.org/2000/svg" xmlns:xlink="http://www.w3.org/1999/xlink" width="463" height="95" viewBox="0 0 463 95"><defs><clipPath id="a"><rect width="463" height="95" rx="5" fill="none"/></clipPath></defs><g clip-path="url(#a)"><path d="M53.8,1.135a2.138,2.138,0,0,0-.767-.153,1.825,1.825,0,0,0-1.381.583L39.285,13.9V8.839a8.514,8.514,0,0,0-2.594-6.246A8.514,8.514,0,0,0,30.446,0H8.839A8.515,8.515,0,0,0,2.593,2.593,8.515,8.515,0,0,0,0,8.839V30.446a8.514,8.514,0,0,0,2.593,6.246,8.515,8.515,0,0,0,6.246,2.594H30.446a8.855,8.855,0,0,0,8.839-8.839v-5.1L51.654,37.72a1.825,1.825,0,0,0,1.381.583,2.142,2.142,0,0,0,.767-.153A1.834,1.834,0,0,0,55,36.34V2.946A1.835,1.835,0,0,0,53.8,1.135Z" transform="translate(380 28)" fill="#eef3f5"/></g></svg>