<svg xmlns="http://www.w3.org/2000/svg" xmlns:xlink="http://www.w3.org/1999/xlink" width="20" height="19.996" viewBox="0 0 20 19.996"><defs><clipPath id="a"><path d="M19.414,20H15.508a.65.65,0,0,1-.586-.7V9.068a.65.65,0,0,1,.586-.7h3.906a.65.65,0,0,1,.586.7V19.3A.65.65,0,0,1,19.414,20Zm-3.32-3.721V18.6h2.734V16.276Zm0-6.51v5.115h2.734V9.766ZM11.953,20H8.047a.65.65,0,0,1-.586-.7V.7A.65.65,0,0,1,8.047,0h3.906a.65.65,0,0,1,.586.7V19.3A.65.65,0,0,1,11.953,20Zm-3.32-8.371V18.6h2.734V11.625Zm0-10.23V10.23h2.733V1.4ZM4.492,20H.586A.65.65,0,0,1,0,19.3V9.068a.65.65,0,0,1,.586-.7H4.492a.65.65,0,0,1,.586.7V19.3A.65.65,0,0,1,4.492,20Zm-3.32-3.721V18.6H3.906V16.276Zm0-6.51v5.115H3.906V9.766Z" transform="translate(0 0)" fill="#bfc5d2"/></clipPath></defs><path d="M19.414,20H15.508a.65.65,0,0,1-.586-.7V9.068a.65.65,0,0,1,.586-.7h3.906a.65.65,0,0,1,.586.7V19.3A.65.65,0,0,1,19.414,20Zm-3.32-3.721V18.6h2.734V16.276Zm0-6.51v5.115h2.734V9.766ZM11.953,20H8.047a.65.65,0,0,1-.586-.7V.7A.65.65,0,0,1,8.047,0h3.906a.65.65,0,0,1,.586.7V19.3A.65.65,0,0,1,11.953,20Zm-3.32-8.371V18.6h2.734V11.625Zm0-10.23V10.23h2.733V1.4ZM4.492,20H.586A.65.65,0,0,1,0,19.3V9.068a.65.65,0,0,1,.586-.7H4.492a.65.65,0,0,1,.586.7V19.3A.65.65,0,0,1,4.492,20Zm-3.32-3.721V18.6H3.906V16.276Zm0-6.51v5.115H3.906V9.766Z"/></svg>
