<svg xmlns="http://www.w3.org/2000/svg" xmlns:xlink="http://www.w3.org/1999/xlink" width="22" height="22" viewBox="0 0 22 22"><defs><clipPath id="a"><path d="M10,21V20a1,1,0,0,1,2,0v1a1,1,0,1,1-2,0Zm7.364-2.221-.707-.707a1,1,0,0,1,1.414-1.414l.707.707a1,1,0,0,1-1.415,1.415Zm-14.142,0a1,1,0,0,1,0-1.415l.707-.707a1,1,0,0,1,1.415,1.414l-.707.707a1,1,0,0,1-1.414,0ZM4,11a7,7,0,1,1,7,7A7.008,7.008,0,0,1,4,11Zm2,0a5,5,0,1,0,5-5A5.005,5.005,0,0,0,6,11Zm14,1a1,1,0,0,1,0-2h1a1,1,0,1,1,0,2ZM1,12a1,1,0,0,1,0-2H2a1,1,0,0,1,0,2ZM16.657,5.343a1,1,0,0,1,0-1.415l.707-.707a1,1,0,1,1,1.415,1.414l-.707.707a1,1,0,0,1-1.414,0Zm-12.729,0-.707-.707A1,1,0,0,1,4.636,3.222l.707.707A1,1,0,0,1,3.929,5.343ZM10,2V1a1,1,0,0,1,2,0V2a1,1,0,0,1-2,0Z" fill="#4a4a4a"/></clipPath></defs><path d="M10,21V20a1,1,0,0,1,2,0v1a1,1,0,1,1-2,0Zm7.364-2.221-.707-.707a1,1,0,0,1,1.414-1.414l.707.707a1,1,0,0,1-1.415,1.415Zm-14.142,0a1,1,0,0,1,0-1.415l.707-.707a1,1,0,0,1,1.415,1.414l-.707.707a1,1,0,0,1-1.414,0ZM4,11a7,7,0,1,1,7,7A7.008,7.008,0,0,1,4,11Zm2,0a5,5,0,1,0,5-5A5.005,5.005,0,0,0,6,11Zm14,1a1,1,0,0,1,0-2h1a1,1,0,1,1,0,2ZM1,12a1,1,0,0,1,0-2H2a1,1,0,0,1,0,2ZM16.657,5.343a1,1,0,0,1,0-1.415l.707-.707a1,1,0,1,1,1.415,1.414l-.707.707a1,1,0,0,1-1.414,0Zm-12.729,0-.707-.707A1,1,0,0,1,4.636,3.222l.707.707A1,1,0,0,1,3.929,5.343ZM10,2V1a1,1,0,0,1,2,0V2a1,1,0,0,1-2,0Z" fill="#4a4a4a"/><g clip-path="url(#a)"><g transform="translate(-15 -17)"><rect width="48" height="41" fill="#f7c137"/></g></g></svg>