<svg xmlns="http://www.w3.org/2000/svg" width="20" height="20" viewBox="0 0 20 20"><path d="M10.879,20H9.116A1.233,1.233,0,0,1,7.9,18.968l-.234-1.4a7.953,7.953,0,0,1-1.32-.544l-1.174.836a1.214,1.214,0,0,1-.714.229,1.229,1.229,0,0,1-.874-.364L2.336,16.478A1.23,1.23,0,0,1,2.2,14.886l.824-1.145a7.718,7.718,0,0,1-.572-1.358l-1.42-.242A1.233,1.233,0,0,1,0,10.922V9.162a1.233,1.233,0,0,1,1.032-1.22l1.387-.234a7.8,7.8,0,0,1,.555-1.366L2.139,5.168a1.232,1.232,0,0,1,.133-1.591L3.522,2.331A1.233,1.233,0,0,1,5.114,2.2l1.149.827A7.678,7.678,0,0,1,7.62,2.453l.243-1.42A1.233,1.233,0,0,1,9.083,0h1.759a1.233,1.233,0,0,1,1.22,1.032L12.3,2.419A7.8,7.8,0,0,1,13.708,3l1.162-.827a1.214,1.214,0,0,1,.714-.23,1.231,1.231,0,0,1,.874.363L17.7,3.551a1.229,1.229,0,0,1,.133,1.592L17.008,6.3a7.876,7.876,0,0,1,.564,1.363l1.4.238A1.217,1.217,0,0,1,20,9.121v1.759a1.234,1.234,0,0,1-1.032,1.22l-1.4.234A7.911,7.911,0,0,1,17,13.7l.827,1.162a1.232,1.232,0,0,1-.133,1.591l-1.246,1.246a1.235,1.235,0,0,1-1.591.133L13.7,17a8.019,8.019,0,0,1-1.363.564l-.238,1.4A1.234,1.234,0,0,1,10.879,20ZM6.309,15.8a.578.578,0,0,1,.284.076,6.949,6.949,0,0,0,1.714.7.562.562,0,0,1,.413.451l.293,1.755a.109.109,0,0,0,.109.092h1.759a.109.109,0,0,0,.109-.092l.3-1.755a.552.552,0,0,1,.413-.451,6.687,6.687,0,0,0,1.751-.727.577.577,0,0,1,.29-.078.556.556,0,0,1,.325.1l1.449,1.032a.114.114,0,0,0,.063.021.107.107,0,0,0,.079-.033L16.9,15.655a.116.116,0,0,0,.013-.142L15.88,14.059a.568.568,0,0,1-.025-.614,6.741,6.741,0,0,0,.727-1.751.562.562,0,0,1,.451-.413l1.755-.292a.117.117,0,0,0,.1-.109V9.121a.109.109,0,0,0-.092-.109l-1.755-.3a.555.555,0,0,1-.452-.414,6.679,6.679,0,0,0-.726-1.75.56.56,0,0,1,.025-.614l1.031-1.45a.113.113,0,0,0-.013-.142L15.659,3.1a.107.107,0,0,0-.142-.012L14.075,4.124a.565.565,0,0,1-.326.1.574.574,0,0,1-.288-.078,6.786,6.786,0,0,0-1.792-.735.568.568,0,0,1-.418-.455l-.292-1.742a.108.108,0,0,0-.108-.092H9.091a.108.108,0,0,0-.108.092l-.3,1.768a.571.571,0,0,1-.413.451,6.583,6.583,0,0,0-1.747.735A.574.574,0,0,1,5.9,4.144L4.462,3.117A.105.105,0,0,0,4.4,3.1a.1.1,0,0,0-.079.033L3.075,4.374a.112.112,0,0,0-.013.142L4.1,5.979a.559.559,0,0,1,.029.61,6.684,6.684,0,0,0-.715,1.754.565.565,0,0,1-.455.418L1.22,9.054a.108.108,0,0,0-.093.108v1.76a.108.108,0,0,0,.093.108l1.767.3a.571.571,0,0,1,.452.413,6.568,6.568,0,0,0,.735,1.747.572.572,0,0,1-.025.618L3.121,15.55a.113.113,0,0,0,.013.142l1.245,1.245a.113.113,0,0,0,.079.034.124.124,0,0,0,.063-.022l1.463-1.04A.545.545,0,0,1,6.309,15.8ZM10,14.314A4.316,4.316,0,1,1,14.318,10,4.32,4.32,0,0,1,10,14.314Zm0-7.5A3.188,3.188,0,1,0,13.189,10,3.191,3.191,0,0,0,10,6.81Z"/></svg>
