<svg xmlns="http://www.w3.org/2000/svg" width="20" height="20" viewBox="0 0 20 20"><path d="M11.675,20a.539.539,0,0,1-.508-.564V14.748H7.5a2.83,2.83,0,0,1-1.867,2.078,2.424,2.424,0,0,1-.7.1,2.716,2.716,0,0,1-2.559-2.181H2.107A2.234,2.234,0,0,1,0,12.423v-1.5A2.325,2.325,0,0,1,1.548,8.673L5.066,7.606,7.158,4.54A2.566,2.566,0,0,1,9.248,3.388h1.919V.564a.51.51,0,1,1,1.015,0V2.259h1.686a.53.53,0,0,1,.508.508l.1,1.2a5.553,5.553,0,0,1,1.244.588l.827-.762a.471.471,0,0,1,.685.04l1.351,1.518a.607.607,0,0,1,.03.757l-.685.921a6.689,6.689,0,0,1,.528,1.389l1.081.113A.549.549,0,0,1,20,9.085v2.163a.546.546,0,0,1-.462.564l-1.066.113a7.084,7.084,0,0,1-.528,1.383l.685.92a.62.62,0,0,1-.03.762L17.233,16.51a.469.469,0,0,1-.68.034l-.828-.762a5.592,5.592,0,0,1-1.248.581l-.1,1.2a.532.532,0,0,1-.508.514H12.182v1.355A.539.539,0,0,1,11.675,20Zm.508-6.268v3.213h1.229l.092-1.085a.539.539,0,0,1,.4-.5,4.375,4.375,0,0,0,1.589-.745.466.466,0,0,1,.281-.1.478.478,0,0,1,.323.13l.751.683.711-.79-.619-.836a.613.613,0,0,1-.036-.666,5.7,5.7,0,0,0,.675-1.773.532.532,0,0,1,.447-.441l.964-.1V9.6l-.979-.108a.526.526,0,0,1-.452-.44,5.474,5.474,0,0,0-.67-1.768.608.608,0,0,1,.031-.671l.625-.842-.7-.785-.746.689a.479.479,0,0,1-.324.131.466.466,0,0,1-.275-.092A4.656,4.656,0,0,0,13.9,4.969a.547.547,0,0,1-.4-.5l-.1-1.078H12.182V6.6a2.892,2.892,0,0,1,.712-.089,2.93,2.93,0,0,1,.715.089A3.684,3.684,0,0,1,16.1,10.96a3.73,3.73,0,0,1-1.162,2.069,3.09,3.09,0,0,1-2.037.792A2.984,2.984,0,0,1,12.182,13.732ZM4.939,12.157A1.741,1.741,0,0,0,3.3,13.981,1.741,1.741,0,0,0,4.939,15.8a1.741,1.741,0,0,0,1.64-1.824A1.741,1.741,0,0,0,4.939,12.157ZM9.254,4.523a1.568,1.568,0,0,0-1.284.707l-2.2,3.213a.491.491,0,0,1-.269.2L1.813,9.763a1.214,1.214,0,0,0-.8,1.163v1.49a1.152,1.152,0,0,0,1.081,1.2H2.3A2.819,2.819,0,0,1,4.62,11.039a2.429,2.429,0,0,1,.318-.021,2.774,2.774,0,0,1,2.635,2.6h3.594V4.523ZM12.9,7.64a2.054,2.054,0,0,0-.715.13v4.793a2.058,2.058,0,0,0,1.427,0,2.6,2.6,0,0,0,1.442-3.19A2.3,2.3,0,0,0,12.9,7.64Z"/></svg>
