<svg xmlns="http://www.w3.org/2000/svg" width="20" height="16" viewBox="0 0 20 16"><path d="M4.323,16c-1.045,0-1.976-1.064-2.263-2.588H1.791C.8,13.412,0,12.2,0,10.707V9.132c0-2.21,1.188-4.009,2.648-4.009H4.8a.73.73,0,0,0,.582-.391L7.766.859A1.6,1.6,0,0,1,9.075,0h6.3A1.526,1.526,0,0,1,16.6.731l2.826,4A3.569,3.569,0,0,1,20,6.714v4c0,1.487-.806,2.7-1.786,2.7H17.96a3.21,3.21,0,0,1-1.617,2.449,1.635,1.635,0,0,1-.652.139c-1.045,0-1.976-1.064-2.263-2.588H6.592a3.251,3.251,0,0,1-1.616,2.449A1.636,1.636,0,0,1,4.323,16Zm11.368-5.625c-.752,0-1.363.926-1.363,2.065S14.94,14.5,15.691,14.5s1.364-.926,1.364-2.065S16.443,10.375,15.691,10.375Zm-11.373,0c-.751,0-1.363.926-1.363,2.065S3.567,14.5,4.318,14.5s1.364-.926,1.364-2.065S5.07,10.375,4.318,10.375ZM15.7,8.858h0c1.157,0,2.156,1.31,2.324,3.047h.184c.434,0,.791-.537.8-1.2V6.721c0-.019,0-.036,0-.053s0-.034,0-.053l-.01,0a.3.3,0,0,1-.074.012H11.637v5.275h1.726c.155-1.563.953-2.771,1.985-3.007A1.589,1.589,0,0,1,15.7,8.858ZM2.651,6.623C1.735,6.623.99,7.749.99,9.132v1.575c.005.657.361,1.191.792,1.191H1.99c.156-1.563.954-2.771,1.985-3.007a1.6,1.6,0,0,1,.347-.038,1.972,1.972,0,0,1,1.532.857,4.287,4.287,0,0,1,.8,2.189h3.99V6.623H4.95a.126.126,0,0,1-.027,0,.133.133,0,0,0-.028,0,.456.456,0,0,1-.1.007ZM14.4,1.507l1.105,3.617h2.726L15.92,1.839a.685.685,0,0,0-.552-.332Zm-2.766,0V5.124h2.781l-1.1-3.617Zm-2.562,0a.732.732,0,0,0-.582.392L6.5,5.124h4.139V1.507Z"/></svg>
