<svg xmlns="http://www.w3.org/2000/svg" width="13.125" height="17.813" viewBox="0 0 13.125 17.813"><path d="M6.562,0A6.572,6.572,0,0,0,0,6.567a9.326,9.326,0,0,0,1.613,4.5c.309.529.665,1.094,1.059,1.681.5.75,1.068,1.537,1.68,2.337.213.276.394.508.555.71.1.129.177.221.22.274l1.435,1.745L8,16.068c.043-.052.118-.144.22-.274.169-.211.355-.45.554-.71.61-.8,1.175-1.584,1.681-2.337.389-.579.745-1.144,1.058-1.681a9.317,9.317,0,0,0,1.614-4.5A6.573,6.573,0,0,0,6.562,0Zm0,14.836c-.047-.057-4.688-5.729-4.688-8.269a4.688,4.688,0,0,1,9.375,0C11.25,9.108,6.609,14.779,6.562,14.836Zm0-11.086A2.812,2.812,0,1,0,9.375,6.563,2.816,2.816,0,0,0,6.562,3.75Zm0,3.75A.938.938,0,1,1,7.5,6.563.938.938,0,0,1,6.562,7.5Z"/></svg>
