<svg xmlns="http://www.w3.org/2000/svg" xmlns:xlink="http://www.w3.org/1999/xlink" width="20" height="20" viewBox="0 0 20 20"><defs><clipPath id="a"><path d="M19.294,20a.863.863,0,0,1-.206-.034L13.1,18.157l-5.99,1.809A.862.862,0,0,1,6.9,20a.854.854,0,0,1-.2-.034L.5,18.087a.7.7,0,0,1-.5-.671V.7A.747.747,0,0,1,.293.134.755.755,0,0,1,.716,0a.624.624,0,0,1,.2.031L6.9,1.858,12.875.031h.034A.156.156,0,0,1,13,.014h.172a.126.126,0,0,1,.042.008.131.131,0,0,0,.044.009h.034l6.2,1.878A.716.716,0,0,1,20,2.581V19.293a.747.747,0,0,1-.292.569A.7.7,0,0,1,19.294,20ZM13.8,1.651V16.916l4.784,1.448V3.1Zm-1.412,0L7.608,3.115V18.364L12.392,16.9Zm-10.981,0V16.916L6.2,18.364V3.1Z" transform="translate(0 0)" fill="#bfc5d2"/></clipPath></defs><path d="M19.294,20a.863.863,0,0,1-.206-.034L13.1,18.157l-5.99,1.809A.862.862,0,0,1,6.9,20a.854.854,0,0,1-.2-.034L.5,18.087a.7.7,0,0,1-.5-.671V.7A.747.747,0,0,1,.293.134.755.755,0,0,1,.716,0a.624.624,0,0,1,.2.031L6.9,1.858,12.875.031h.034A.156.156,0,0,1,13,.014h.172a.126.126,0,0,1,.042.008.131.131,0,0,0,.044.009h.034l6.2,1.878A.716.716,0,0,1,20,2.581V19.293a.747.747,0,0,1-.292.569A.7.7,0,0,1,19.294,20ZM13.8,1.651V16.916l4.784,1.448V3.1Zm-1.412,0L7.608,3.115V18.364L12.392,16.9Zm-10.981,0V16.916L6.2,18.364V3.1Z"/></svg>
