<svg width="24" height="24" xmlns="http://www.w3.org/2000/svg" fill-rule="evenodd" clip-rule="evenodd"><path d="M12 0c6.623 0 12 5.377 12 12s-5.377 12-12 12-12-5.377-12-12 5.377-12 12-12zm0 1c6.071 0 11 4.929 11 11s-4.929 11-11 11-11-4.929-11-11 4.929-11 11-11zm-.045 17.51h-.015c-2.285 0-4.469-1.189-6.153-3.349l.789-.614c1.489 1.911 3.394 2.963 5.364 2.963h.013c1.987-.004 3.907-1.078 5.408-3.021l.791.611c-1.693 2.194-3.894 3.405-6.197 3.41zm-3.468-10.01c.552 0 1 .448 1 1s-.448 1-1 1-1-.448-1-1 .448-1 1-1zm7.013 0c.552 0 1 .448 1 1s-.448 1-1 1-1-.448-1-1 .448-1 1-1z"/></svg>
